<svg width="55" height="55" viewBox="0 0 55 55" fill="none" xmlns="http://www.w3.org/2000/svg">
<rect x="0.871094" y="2.72211" width="48.8614" height="48.8614" rx="10" fill="#AB0B4B"/>
<path fill-rule="evenodd" clip-rule="evenodd" d="M30.2082 26.5633C30.7044 25.3642 30.9783 24.0497 30.9783 22.6711C30.9783 17.0506 26.4264 12.4944 20.8114 12.4944C15.1964 12.4944 10.6445 17.0506 10.6445 22.6711C10.6445 24.0495 10.9183 25.3639 11.4144 26.5628C12.9413 22.8735 16.5735 20.2783 20.8112 20.2783C25.0491 20.2783 28.6814 22.8738 30.2082 26.5633Z" fill="white"/>
<path fill-rule="evenodd" clip-rule="evenodd" d="M20.3972 27.7427C19.901 28.9416 19.6272 30.2561 19.6272 31.6346C19.6272 37.255 24.1791 41.8113 29.7941 41.8113C35.4091 41.8113 39.9609 37.255 39.9609 31.6346C39.9609 30.256 39.6871 28.9415 39.1909 27.7425C37.6641 31.4319 34.0318 34.0272 29.794 34.0272C25.5562 34.0272 21.924 31.432 20.3972 27.7427Z" fill="white"/>
<path fill-rule="evenodd" clip-rule="evenodd" d="M25.906 32.0771C27.1037 32.5737 28.4169 32.8478 29.7941 32.8478C35.4091 32.8478 39.9609 28.2915 39.9609 22.6711C39.9609 17.0507 35.4091 12.4944 29.7941 12.4944C28.4169 12.4944 27.1036 12.7685 25.9058 13.2652C29.5917 14.7934 32.1846 18.4292 32.1846 22.6712C32.1846 26.9131 29.5918 30.5488 25.906 32.0771Z" fill="white"/>
<path fill-rule="evenodd" clip-rule="evenodd" d="M24.6994 22.2287C23.5016 21.732 22.1884 21.4579 20.8112 21.4579C15.1962 21.4579 10.6443 26.0142 10.6443 31.6346C10.6443 37.255 15.1962 41.8113 20.8112 41.8113C22.1883 41.8113 23.5016 41.5372 24.6994 41.0405C21.0135 39.5123 18.4207 35.8765 18.4207 31.6346C18.4207 27.3927 21.0136 23.757 24.6994 22.2287Z" fill="white"/>
</svg>
